<?xml version="1.0"?>
<svg xmlns="http://www.w3.org/2000/svg" xmlns:xlink="http://www.w3.org/1999/xlink" version="1.1" id="Capa_1" x="0px" y="0px" viewBox="0 0 512.001 512.001" style="enable-background:new 0 0 512.001 512.001;" xml:space="preserve" width="512px" height="512px" class=""><g><g>
	<g>
		<path d="M298.667,341.333h-85.333c-29.441,0.035-53.298,23.893-53.333,53.333v106.667c0,5.891,4.776,10.667,10.667,10.667h170.667    c5.891,0,10.667-4.776,10.667-10.667V394.667C351.965,365.227,328.107,341.369,298.667,341.333z M330.667,490.667h-64v-85.333    h-21.333v85.333h-64v-96c0-17.673,14.327-32,32-32h32V384h21.333v-21.333h32c17.673,0,32,14.327,32,32V490.667z" data-original="#000000" class="active-path" data-old_color="#3399cc" fill="#3399cc"/>
	</g>
</g><g>
	<g>
		<path d="M259.595,202.667h-7.189c-1.53,0-3.058,0.076-4.58,0.228c-25.294,2.527-43.75,25.081-41.223,50.375l3.595,35.947    c2.279,23.568,22.124,41.528,45.802,41.451c23.678,0.077,43.523-17.883,45.803-41.451l3.595-35.947    c0.152-1.522,0.228-3.051,0.228-4.58C305.624,223.269,285.015,202.664,259.595,202.667z M284.213,251.147l-3.595,35.947    c-1.191,11.657-10.408,20.873-22.064,22.064c-13.573,1.387-25.7-8.491-27.088-22.064l-3.595-35.947    c-0.08-0.803-0.121-1.609-0.122-2.416c-0.02-13.638,11.019-24.71,24.656-24.731h7.189c0.835-0.002,1.67,0.039,2.501,0.122    C275.665,225.477,285.568,237.576,284.213,251.147z" data-original="#000000" class="active-path" data-old_color="#3399cc" fill="#3399cc"/>
	</g>
</g><g>
	<g>
		<rect x="202.67" y="405.33" width="21.333" height="21.333" data-original="#000000" class="active-path" data-old_color="#3399cc" fill="#3399cc"/>
	</g>
</g><g>
	<g>
		<path d="M352,0H160c-5.891,0-10.667,4.776-10.667,10.667v42.667C149.333,59.224,154.109,64,160,64h192    c5.891,0,10.667-4.776,10.667-10.667V10.667C362.667,4.776,357.891,0,352,0z M192,42.667h-21.333V21.333H192V42.667z     M341.333,42.667h-128V21.333h128V42.667z" data-original="#000000" class="active-path" data-old_color="#3399cc" fill="#3399cc"/>
	</g>
</g><g>
	<g>
		<path d="M138.666,106.667H0V128h85.333v21.333H0v21.333h138.667c5.891,0.001,10.666-4.775,10.666-10.666v-42.667    C149.333,111.443,144.557,106.667,138.666,106.667z M128,149.333h-21.333V128H128V149.333z" data-original="#000000" class="active-path" data-old_color="#3399cc" fill="#3399cc"/>
	</g>
</g><g>
	<g>
		<rect x="320" y="74.67" width="32" height="21.333" data-original="#000000" class="active-path" data-old_color="#3399cc" fill="#3399cc"/>
	</g>
</g><g>
	<g>
		<path d="M501.333,106.667H362.667V128H448v21.333h-85.333v21.333h138.667c5.891,0,10.667-4.776,10.667-10.667v-42.667    C512,111.443,507.224,106.667,501.333,106.667z M490.667,149.333h-21.333V128h21.333V149.333z" data-original="#000000" class="active-path" data-old_color="#3399cc" fill="#3399cc"/>
	</g>
</g><g>
	<g>
		<path d="M416,181.334v21.333h32v96h-43.055c-1.745-24.308-9.435-48.283-23.079-69.652c-26.4-41.348-69.764-65.307-115.2-68.596V96    h32V74.667H160V96h85.333v64.396c-24.02,1.698-47.972,9.244-69.695,23.114c-41.335,26.391-65.292,69.736-68.594,115.157H64v-96h32    v-21.333H10.667v21.333h32v106.667c0,5.891,4.776,10.667,10.667,10.667h53.684c1.692,24.035,9.238,48.002,23.116,69.739    l18.005-11.488c-26.823-42.008-26.823-95.765,0-137.773c38.045-59.582,117.187-77.041,176.769-38.996    s77.041,117.187,38.996,176.769l17.963,11.499v-0.011c13.66-21.394,21.353-45.401,23.086-69.739h53.714    c5.891,0,10.667-4.776,10.667-10.667V202.667h32v-21.333H416z" data-original="#000000" class="active-path" data-old_color="#3399cc" fill="#3399cc"/>
	</g>
</g></g> </svg>
